<?xml version="1.0" encoding="utf-8"?>
<!-- Generator: Adobe Illustrator 26.4.1, SVG Export Plug-In . SVG Version: 6.00 Build 0)  -->
<svg version="1.1" id="Layer_1" xmlns="http://www.w3.org/2000/svg" xmlns:xlink="http://www.w3.org/1999/xlink" x="0px" y="0px"
	 viewBox="0 0 1080 1080" style="enable-background:new 0 0 1080 1080;" xml:space="preserve">
<style type="text/css">
	.st0{fill:#FFFFFF;}
</style>
<g>
	<rect x="0" class="st0" width="1080" height="1080"/>
	<g>
		<path d="M575.7,581.42c-1.3-1.85-3.45-2.91-5.71-2.78c-1.63,0.1-3.27,0.15-4.93,0.14c-45.11-0.19-90.23-0.05-135.34,0.01
			c-3.15,0-8.86-0.22-9.69,0.87c-0.81,1.08,0.65,2.92,1.11,3.57c60.11,85.96,120.15,171.98,180.72,257.62
			c2.96,4.18,10.63,7.03,16.14,7.09c44.7,0.51,136.07,0.23,144.35,0.21c0.26,0,0.4-0.3,0.24-0.51L575.7,581.42z"/>
		<path d="M498.29,439.28c1.69,2.41,4.45,3.85,7.4,3.84c29.75-0.02,53.43-0.04,60.68,0c39.7,0.21,70.16,30.1,69.95,68.49
			c-0.15,26.62-15.28,48.82-37.95,59.79c-2.89,1.4-3.89,5-2.05,7.62l71.96,102.58c1.63,2.32,4.8,3.03,7.21,1.54
			c20.41-12.57,38.31-28.99,53.43-49.38c46.67-62.95,55.95-132.2,24.38-203.85c-31.74-72.03-88.86-114.45-167.82-119.61
			c-30.94-2.02-102.88-2.33-175.05-2.14c-1.74,0-2.75,1.96-1.75,3.38L498.29,439.28z"/>
		<path d="M477.02,440.75l-90.77-129.39c-1.37-1.95-3.61-3.11-6-3.1c-62.14,0.26-120.14,0.77-147.16,0.71
			c-0.62,0-2.09,0.29-2.22,1.88c-0.1,1.23,1.51,2.91,2.45,4.27c28.25,40.54,56.35,81.18,85.07,121.39c2.6,3.63,9.1,6.15,13.87,6.28
			c13.42,0.38,83.22,0.38,143.53,0.35C477.02,443.14,477.73,441.76,477.02,440.75z"/>
	</g>
</g>
</svg>
